<svg width="18" height="18" viewBox="0 0 18 18" fill="none" xmlns="http://www.w3.org/2000/svg">
<path d="M17.6747 14.9407L13.7596 11.0226C13.0051 10.2676 11.7815 10.2674 11.0268 11.0221C10.2723 11.7766 10.2723 12.9999 11.0268 13.7544L14.9458 17.6735C15.3795 18.1072 16.0934 18.1072 16.5271 17.6735L17.6747 16.5259C18.1084 16.0883 18.1084 15.3706 17.6747 14.9407Z" fill="#AFAFAF"/>
<path d="M9.86445 11.2949C10.2598 11.6902 10.9007 11.6902 11.2961 11.2949C11.6914 10.8995 11.6914 10.2586 11.2961 9.86325L11.1233 9.69047C10.6934 9.26056 10.6479 8.58936 10.8966 8.03461C11.837 5.93771 11.4492 3.38777 9.7282 1.66674C7.50593 -0.555581 3.89426 -0.555581 1.66814 1.66674C-0.557967 3.88907 -0.554128 7.50084 1.66814 9.727C3.38913 11.448 5.939 11.8358 8.03586 10.8955C8.5906 10.6467 9.26178 10.6922 9.69168 11.1221L9.86445 11.2949ZM2.77352 8.60624C1.16152 6.99419 1.16152 4.38036 2.77352 2.77216C4.38553 1.1601 6.99929 1.1601 8.60747 2.77216C10.2195 4.3842 10.2195 6.99803 8.60747 8.60624C6.99929 10.2183 4.38553 10.2183 2.77352 8.60624Z" fill="#AFAFAF"/>
</svg>
