<svg width="13" height="10" viewBox="0 0 13 10" fill="none" xmlns="http://www.w3.org/2000/svg">
<path d="M1.699 4.38088C1.30405 3.99483 0.670925 4.00205 0.284879 4.397C-0.101169 4.79195 -0.0939495 5.42508 0.301002 5.81112L1.699 4.38088ZM4.66667 8.68L3.96767 9.39512C4.15878 9.58192 4.41671 9.68446 4.68391 9.67985C4.95111 9.67524 5.20535 9.56388 5.38991 9.37059L4.66667 8.68ZM12.7232 1.6906C13.1046 1.29116 13.09 0.658167 12.6906 0.276762C12.2912 -0.104647 11.6582 -0.0900273 11.2768 0.309408L12.7232 1.6906ZM0.301002 5.81112L3.96767 9.39512L5.36567 7.96488L1.699 4.38088L0.301002 5.81112ZM5.38991 9.37059L12.7232 1.6906L11.2768 0.309408L3.94343 7.9894L5.38991 9.37059Z" fill="white"/>
</svg>
