<svg width="120" height="180" viewBox="0 0 120 180" fill="none" xmlns="http://www.w3.org/2000/svg">
<path d="M60 67.5C67.2487 67.5 73.125 61.6237 73.125 54.375C73.125 47.1263 67.2487 41.25 60 41.25C52.7513 41.25 46.875 47.1263 46.875 54.375C46.875 61.6237 52.7513 67.5 60 67.5Z" fill="white"/>
<path d="M105 48.75C102.679 48.7565 100.417 49.4808 98.5234 50.8235C96.6302 52.1662 95.1986 54.0617 94.4249 56.25H89.7374C88.9082 49.6431 85.9044 43.4999 81.1994 38.7881C76.4944 34.0763 70.3555 31.0638 63.7499 30.225V25.575C66.2519 24.6904 68.3607 22.9497 69.7035 20.6607C71.0463 18.3717 71.5366 15.6816 71.0879 13.066C70.6391 10.4504 69.2801 8.07762 67.2511 6.36709C65.2221 4.65656 62.6537 3.71838 59.9999 3.71838C57.3461 3.71838 54.7777 4.65656 52.7487 6.36709C50.7197 8.07762 49.3607 10.4504 48.9119 13.066C48.4632 15.6816 48.9535 18.3717 50.2963 20.6607C51.6391 22.9497 53.7478 24.6904 56.2499 25.575V30.225C49.6442 31.0638 43.5054 34.0763 38.8004 38.7881C34.0954 43.4999 31.0916 49.6431 30.2624 56.25H25.5749C24.6903 53.7479 22.9496 51.6392 20.6606 50.2964C18.3716 48.9536 15.6815 48.4632 13.0659 48.912C10.4503 49.3608 8.0775 50.7198 6.36697 52.7488C4.65644 54.7778 3.71826 57.3462 3.71826 60C3.71826 62.6538 4.65644 65.2222 6.36697 67.2512C8.0775 69.2802 10.4503 70.6392 13.0659 71.088C15.6815 71.5367 18.3716 71.0464 20.6606 69.7036C22.9496 68.3608 24.6903 66.252 25.5749 63.75H30.2624C30.6667 67.0108 31.6175 70.1801 33.0749 73.125C35.0097 69.1607 37.8021 65.6766 41.2499 62.925C40.009 60.2458 39.3691 57.3276 39.3749 54.375C39.3879 49.5583 41.0803 44.8968 44.1606 41.1937C47.2408 37.4906 51.5161 34.9775 56.2499 34.0875C58.7288 33.6283 61.271 33.6283 63.7499 34.0875C68.4837 34.9775 72.7589 37.4906 75.8392 41.1937C78.9194 44.8968 80.6119 49.5583 80.6249 54.375C80.6307 57.3276 79.9908 60.2458 78.7499 62.925C82.1977 65.6766 84.9901 69.1607 86.9249 73.125C88.3823 70.1801 89.3331 67.0108 89.7374 63.75H94.4249C95.1128 65.6958 96.3228 67.4148 97.9223 68.719C99.5218 70.0232 101.449 70.8623 103.494 71.1444C105.538 71.4265 107.621 71.1407 109.514 70.3184C111.406 69.4962 113.037 68.169 114.226 66.4822C115.415 64.7954 116.117 62.814 116.256 60.7549C116.394 58.6957 115.964 56.6381 115.011 54.8073C114.058 52.9765 112.621 51.4429 110.855 50.3746C109.089 49.3062 107.063 48.7442 105 48.75Z" fill="white"/>
<path d="M98.1752 97.05C96.5289 95.4119 94.416 94.3234 92.1265 93.934C89.8369 93.5446 87.483 93.8733 85.3877 94.875L75.8627 85.35C78.025 84.0268 80.0044 82.4256 81.7502 80.5875C80.5727 76.0906 78.0312 72.0689 74.4752 69.075C70.6118 72.8677 65.4141 74.9926 60.0002 74.9926C54.5863 74.9926 49.3886 72.8677 45.5252 69.075C41.9692 72.0689 39.4278 76.0906 38.2502 80.5875C40.0333 82.4626 42.0498 84.101 44.2502 85.4625L34.8002 94.9125C32.7042 93.9566 30.3702 93.6494 28.0982 94.0303C25.8262 94.4112 23.72 95.4628 22.0502 97.05C20.5841 98.5031 19.5461 100.332 19.0498 102.335C18.5534 104.339 18.618 106.441 19.2363 108.41C19.8546 110.38 21.0028 112.141 22.5553 113.501C24.1078 114.862 26.0047 115.769 28.0383 116.123C30.0718 116.478 32.1637 116.266 34.0849 115.511C36.006 114.756 37.6824 113.486 38.9305 111.842C40.1786 110.198 40.9502 108.242 41.1609 106.189C41.3717 104.135 41.0133 102.063 40.1252 100.2L51.5627 88.95C57.1231 90.6503 63.0648 90.6503 68.6252 88.95L80.1002 100.463C79.2121 102.326 78.8538 104.398 79.0645 106.451C79.2752 108.505 80.0469 110.461 81.2949 112.105C82.543 113.749 84.2194 115.018 86.1406 115.773C88.0617 116.528 90.1536 116.74 92.1872 116.386C94.2208 116.031 96.1176 115.124 97.6701 113.764C99.2226 112.403 100.371 110.642 100.989 108.673C101.608 106.703 101.672 104.602 101.176 102.598C100.679 100.594 99.6413 98.7656 98.1752 97.3125V97.05Z" fill="white"/>
<path d="M20.9661 158.595C20.815 157.283 20.1919 156.266 19.0967 155.545C18.0015 154.815 16.6231 154.45 14.9614 154.45C13.7718 154.45 12.7427 154.635 11.8741 155.005C11.0055 155.365 10.3304 155.864 9.84892 156.502C9.37685 157.13 9.14082 157.847 9.14082 158.651C9.14082 159.325 9.30132 159.908 9.62232 160.397C9.95277 160.887 10.3823 161.299 10.9111 161.631C11.4492 161.955 12.0251 162.227 12.6388 162.449C13.2525 162.662 13.8426 162.837 14.4091 162.976L17.2415 163.697C18.1667 163.919 19.1156 164.219 20.0881 164.598C21.0605 164.977 21.9622 165.476 22.793 166.095C23.6238 166.714 24.2942 167.481 24.804 168.396C25.3233 169.312 25.5829 170.407 25.5829 171.682C25.5829 173.29 25.1581 174.718 24.3083 175.966C23.4681 177.213 22.2454 178.198 20.6404 178.919C19.0448 179.64 17.114 180 14.8481 180C12.6766 180 10.7978 179.663 9.21163 178.988C7.62548 178.313 6.38394 177.357 5.48701 176.118C4.59008 174.871 4.09441 173.392 4 171.682H8.39023C8.4752 172.708 8.81509 173.563 9.40989 174.247C10.0141 174.921 10.7836 175.425 11.7183 175.758C12.6624 176.081 13.6963 176.243 14.8198 176.243C16.0566 176.243 17.1565 176.054 18.1195 175.675C19.092 175.286 19.8568 174.75 20.4138 174.066C20.9708 173.373 21.2493 172.565 21.2493 171.64C21.2493 170.799 21.0039 170.111 20.5129 169.575C20.0314 169.039 19.3752 168.595 18.5444 168.244C17.723 167.893 16.793 167.583 15.7545 167.315L12.3273 166.4C10.0047 165.781 8.16364 164.871 6.80408 163.669C5.45397 162.468 4.77891 160.878 4.77891 158.9C4.77891 157.264 5.2321 155.836 6.13847 154.616C7.04484 153.396 8.27221 152.449 9.82059 151.774C11.369 151.091 13.1156 150.749 15.0605 150.749C17.0243 150.749 18.7568 151.086 20.258 151.761C21.7686 152.435 22.9582 153.364 23.8268 154.547C24.6954 155.721 25.1486 157.07 25.1864 158.595H20.9661ZM39.6352 179.958C37.5959 179.958 35.8162 179.501 34.2961 178.586C32.7761 177.671 31.5959 176.391 30.7556 174.746C29.9153 173.101 29.4952 171.178 29.4952 168.979C29.4952 166.77 29.9153 164.838 30.7556 163.184C31.5959 161.53 32.7761 160.245 34.2961 159.33C35.8162 158.415 37.5959 157.957 39.6352 157.957C41.6745 157.957 43.4542 158.415 44.9743 159.33C46.4943 160.245 47.6745 161.53 48.5148 163.184C49.3551 164.838 49.7752 166.77 49.7752 168.979C49.7752 171.178 49.3551 173.101 48.5148 174.746C47.6745 176.391 46.4943 177.671 44.9743 178.586C43.4542 179.501 41.6745 179.958 39.6352 179.958ZM39.6494 176.479C40.9711 176.479 42.0663 176.137 42.935 175.453C43.8036 174.769 44.4456 173.859 44.861 172.722C45.2858 171.585 45.4983 170.333 45.4983 168.965C45.4983 167.606 45.2858 166.359 44.861 165.222C44.4456 164.076 43.8036 163.156 42.935 162.463C42.0663 161.77 40.9711 161.423 39.6494 161.423C38.3181 161.423 37.2135 161.77 36.3354 162.463C35.4668 163.156 34.8201 164.076 34.3952 165.222C33.9798 166.359 33.7721 167.606 33.7721 168.965C33.7721 170.333 33.9798 171.585 34.3952 172.722C34.8201 173.859 35.4668 174.769 36.3354 175.453C37.2135 176.137 38.3181 176.479 39.6494 176.479ZM63.6646 179.958C61.5592 179.958 59.7465 179.492 58.2264 178.558C56.7158 177.616 55.5545 176.317 54.7425 174.663C53.9306 173.008 53.5246 171.114 53.5246 168.979C53.5246 166.816 53.94 164.908 54.7709 163.253C55.6017 161.59 56.7724 160.291 58.283 159.358C59.7937 158.424 61.5734 157.957 63.6221 157.957C65.2744 157.957 66.7472 158.258 68.0407 158.859C69.3342 159.45 70.3774 160.282 71.1705 161.354C71.973 162.426 72.4498 163.678 72.6009 165.111H68.4797C68.2531 164.113 67.7338 163.253 66.9219 162.532C66.1194 161.811 65.0431 161.451 63.6929 161.451C62.5128 161.451 61.4789 161.756 60.5915 162.366C59.7134 162.967 59.0289 163.826 58.538 164.944C58.047 166.054 57.8015 167.366 57.8015 168.882C57.8015 170.434 58.0423 171.774 58.5238 172.902C59.0053 174.03 59.6851 174.903 60.5631 175.522C61.4506 176.141 62.4939 176.451 63.6929 176.451C64.4955 176.451 65.2224 176.308 65.8739 176.021C66.5348 175.726 67.0871 175.305 67.5308 174.76C67.984 174.214 68.3003 173.558 68.4797 172.791H72.6009C72.4498 174.168 71.9919 175.397 71.2271 176.479C70.4624 177.56 69.438 178.41 68.154 179.03C66.8794 179.649 65.3829 179.958 63.6646 179.958ZM77.1292 179.529V158.235H81.3636V179.529H77.1292ZM79.2676 154.949C78.5312 154.949 77.8986 154.709 77.3699 154.228C76.8506 153.738 76.591 153.156 76.591 152.482C76.591 151.798 76.8506 151.215 77.3699 150.735C77.8986 150.245 78.5312 150 79.2676 150C80.0041 150 80.6319 150.245 81.1512 150.735C81.6799 151.215 81.9443 151.798 81.9443 152.482C81.9443 153.156 81.6799 153.738 81.1512 154.228C80.6319 154.709 80.0041 154.949 79.2676 154.949ZM93.3907 180C92.0123 180 90.766 179.75 89.6519 179.251C88.5378 178.743 87.6551 178.008 87.0036 177.047C86.3616 176.086 86.0406 174.908 86.0406 173.512C86.0406 172.31 86.2767 171.322 86.7487 170.545C87.2208 169.769 87.8581 169.154 88.6606 168.701C89.4631 168.249 90.36 167.907 91.3514 167.676C92.3427 167.444 93.353 167.269 94.3821 167.149C95.685 167.001 96.7424 166.881 97.5543 166.788C98.3663 166.687 98.9564 166.525 99.3246 166.303C99.6928 166.081 99.8769 165.721 99.8769 165.222V165.125C99.8769 163.914 99.5276 162.976 98.8289 162.311C98.1397 161.645 97.1106 161.312 95.7416 161.312C94.316 161.312 93.1924 161.622 92.371 162.241C91.5591 162.851 90.9973 163.531 90.6858 164.279L86.7062 163.392C87.1783 162.098 87.8675 161.054 88.7739 160.259C89.6897 159.455 90.7424 158.872 91.932 158.512C93.1216 158.142 94.3726 157.957 95.685 157.957C96.5536 157.957 97.4741 158.059 98.4466 158.262C99.4285 158.457 100.344 158.817 101.194 159.344C102.053 159.871 102.757 160.624 103.304 161.604C103.852 162.574 104.126 163.835 104.126 165.388V179.529H99.9902V176.617H99.8203C99.5465 177.153 99.1358 177.68 98.5882 178.198C98.0406 178.715 97.3372 179.145 96.478 179.487C95.6189 179.829 94.5898 180 93.3907 180ZM94.3112 176.673C95.482 176.673 96.4827 176.446 97.3136 175.993C98.1539 175.541 98.7912 174.949 99.2255 174.219C99.6692 173.48 99.8911 172.69 99.8911 171.848V169.104C99.74 169.251 99.4473 169.39 99.013 169.519C98.5882 169.64 98.1019 169.746 97.5543 169.838C97.0068 169.921 96.4733 170 95.954 170.074C95.4348 170.139 95.0005 170.194 94.6511 170.24C93.8297 170.342 93.0791 170.513 92.3994 170.753C91.729 170.993 91.1909 171.34 90.7849 171.793C90.3884 172.237 90.1901 172.828 90.1901 173.567C90.1901 174.593 90.5772 175.37 91.3514 175.896C92.1256 176.414 93.1122 176.673 94.3112 176.673ZM114 151.137V179.529H109.766V151.137H114Z" fill="white"/>
<path d="M20.9661 158.595C20.815 157.283 20.1919 156.266 19.0967 155.545C18.0015 154.815 16.6231 154.45 14.9614 154.45C13.7718 154.45 12.7427 154.635 11.8741 155.005C11.0055 155.365 10.3304 155.864 9.84892 156.502C9.37685 157.13 9.14082 157.847 9.14082 158.651C9.14082 159.325 9.30132 159.908 9.62232 160.397C9.95277 160.887 10.3823 161.299 10.9111 161.631C11.4492 161.955 12.0251 162.227 12.6388 162.449C13.2525 162.662 13.8426 162.837 14.4091 162.976L17.2415 163.697C18.1667 163.919 19.1156 164.219 20.0881 164.598C21.0605 164.977 21.9622 165.476 22.793 166.095C23.6238 166.714 24.2942 167.481 24.804 168.396C25.3233 169.312 25.5829 170.407 25.5829 171.682C25.5829 173.29 25.1581 174.718 24.3083 175.966C23.4681 177.213 22.2454 178.198 20.6404 178.919C19.0448 179.64 17.114 180 14.8481 180C12.6766 180 10.7978 179.663 9.21163 178.988C7.62548 178.313 6.38394 177.357 5.48701 176.118C4.59008 174.871 4.09441 173.392 4 171.682H8.39023C8.4752 172.708 8.81509 173.563 9.40989 174.247C10.0141 174.921 10.7836 175.425 11.7183 175.758C12.6624 176.081 13.6963 176.243 14.8198 176.243C16.0566 176.243 17.1565 176.054 18.1195 175.675C19.092 175.286 19.8568 174.75 20.4138 174.066C20.9708 173.373 21.2493 172.565 21.2493 171.64C21.2493 170.799 21.0039 170.111 20.5129 169.575C20.0314 169.039 19.3752 168.595 18.5444 168.244C17.723 167.893 16.793 167.583 15.7545 167.315L12.3273 166.4C10.0047 165.781 8.16364 164.871 6.80408 163.669C5.45397 162.468 4.77891 160.878 4.77891 158.9C4.77891 157.264 5.2321 155.836 6.13847 154.616C7.04484 153.396 8.27221 152.449 9.82059 151.774C11.369 151.091 13.1156 150.749 15.0605 150.749C17.0243 150.749 18.7568 151.086 20.258 151.761C21.7686 152.435 22.9582 153.364 23.8268 154.547C24.6954 155.721 25.1486 157.07 25.1864 158.595H20.9661ZM39.6352 179.958C37.5959 179.958 35.8162 179.501 34.2961 178.586C32.7761 177.671 31.5959 176.391 30.7556 174.746C29.9153 173.101 29.4952 171.178 29.4952 168.979C29.4952 166.77 29.9153 164.838 30.7556 163.184C31.5959 161.53 32.7761 160.245 34.2961 159.33C35.8162 158.415 37.5959 157.957 39.6352 157.957C41.6745 157.957 43.4542 158.415 44.9743 159.33C46.4943 160.245 47.6745 161.53 48.5148 163.184C49.3551 164.838 49.7752 166.77 49.7752 168.979C49.7752 171.178 49.3551 173.101 48.5148 174.746C47.6745 176.391 46.4943 177.671 44.9743 178.586C43.4542 179.501 41.6745 179.958 39.6352 179.958ZM39.6494 176.479C40.9711 176.479 42.0663 176.137 42.935 175.453C43.8036 174.769 44.4456 173.859 44.861 172.722C45.2858 171.585 45.4983 170.333 45.4983 168.965C45.4983 167.606 45.2858 166.359 44.861 165.222C44.4456 164.076 43.8036 163.156 42.935 162.463C42.0663 161.77 40.9711 161.423 39.6494 161.423C38.3181 161.423 37.2135 161.77 36.3354 162.463C35.4668 163.156 34.8201 164.076 34.3952 165.222C33.9798 166.359 33.7721 167.606 33.7721 168.965C33.7721 170.333 33.9798 171.585 34.3952 172.722C34.8201 173.859 35.4668 174.769 36.3354 175.453C37.2135 176.137 38.3181 176.479 39.6494 176.479ZM63.6646 179.958C61.5592 179.958 59.7465 179.492 58.2264 178.558C56.7158 177.616 55.5545 176.317 54.7425 174.663C53.9306 173.008 53.5246 171.114 53.5246 168.979C53.5246 166.816 53.94 164.908 54.7709 163.253C55.6017 161.59 56.7724 160.291 58.283 159.358C59.7937 158.424 61.5734 157.957 63.6221 157.957C65.2744 157.957 66.7472 158.258 68.0407 158.859C69.3342 159.45 70.3774 160.282 71.1705 161.354C71.973 162.426 72.4498 163.678 72.6009 165.111H68.4797C68.2531 164.113 67.7338 163.253 66.9219 162.532C66.1194 161.811 65.0431 161.451 63.6929 161.451C62.5128 161.451 61.4789 161.756 60.5915 162.366C59.7134 162.967 59.0289 163.826 58.538 164.944C58.047 166.054 57.8015 167.366 57.8015 168.882C57.8015 170.434 58.0423 171.774 58.5238 172.902C59.0053 174.03 59.6851 174.903 60.5631 175.522C61.4506 176.141 62.4939 176.451 63.6929 176.451C64.4955 176.451 65.2224 176.308 65.8739 176.021C66.5348 175.726 67.0871 175.305 67.5308 174.76C67.984 174.214 68.3003 173.558 68.4797 172.791H72.6009C72.4498 174.168 71.9919 175.397 71.2271 176.479C70.4624 177.56 69.438 178.41 68.154 179.03C66.8794 179.649 65.3829 179.958 63.6646 179.958ZM77.1292 179.529V158.235H81.3636V179.529H77.1292ZM79.2676 154.949C78.5312 154.949 77.8986 154.709 77.3699 154.228C76.8506 153.738 76.591 153.156 76.591 152.482C76.591 151.798 76.8506 151.215 77.3699 150.735C77.8986 150.245 78.5312 150 79.2676 150C80.0041 150 80.6319 150.245 81.1512 150.735C81.6799 151.215 81.9443 151.798 81.9443 152.482C81.9443 153.156 81.6799 153.738 81.1512 154.228C80.6319 154.709 80.0041 154.949 79.2676 154.949ZM93.3907 180C92.0123 180 90.766 179.75 89.6519 179.251C88.5378 178.743 87.6551 178.008 87.0036 177.047C86.3616 176.086 86.0406 174.908 86.0406 173.512C86.0406 172.31 86.2767 171.322 86.7487 170.545C87.2208 169.769 87.8581 169.154 88.6606 168.701C89.4631 168.249 90.36 167.907 91.3514 167.676C92.3427 167.444 93.353 167.269 94.3821 167.149C95.685 167.001 96.7424 166.881 97.5543 166.788C98.3663 166.687 98.9564 166.525 99.3246 166.303C99.6928 166.081 99.8769 165.721 99.8769 165.222V165.125C99.8769 163.914 99.5276 162.976 98.8289 162.311C98.1397 161.645 97.1106 161.312 95.7416 161.312C94.316 161.312 93.1924 161.622 92.371 162.241C91.5591 162.851 90.9973 163.531 90.6858 164.279L86.7062 163.392C87.1783 162.098 87.8675 161.054 88.7739 160.259C89.6897 159.455 90.7424 158.872 91.932 158.512C93.1216 158.142 94.3726 157.957 95.685 157.957C96.5536 157.957 97.4741 158.059 98.4466 158.262C99.4285 158.457 100.344 158.817 101.194 159.344C102.053 159.871 102.757 160.624 103.304 161.604C103.852 162.574 104.126 163.835 104.126 165.388V179.529H99.9902V176.617H99.8203C99.5465 177.153 99.1358 177.68 98.5882 178.198C98.0406 178.715 97.3372 179.145 96.478 179.487C95.6189 179.829 94.5898 180 93.3907 180ZM94.3112 176.673C95.482 176.673 96.4827 176.446 97.3136 175.993C98.1539 175.541 98.7912 174.949 99.2255 174.219C99.6692 173.48 99.8911 172.69 99.8911 171.848V169.104C99.74 169.251 99.4473 169.39 99.013 169.519C98.5882 169.64 98.1019 169.746 97.5543 169.838C97.0068 169.921 96.4733 170 95.954 170.074C95.4348 170.139 95.0005 170.194 94.6511 170.24C93.8297 170.342 93.0791 170.513 92.3994 170.753C91.729 170.993 91.1909 171.34 90.7849 171.793C90.3884 172.237 90.1901 172.828 90.1901 173.567C90.1901 174.593 90.5772 175.37 91.3514 175.896C92.1256 176.414 93.1122 176.673 94.3112 176.673ZM114 151.137V179.529H109.766V151.137H114Z" fill="white"/>
<path d="M20.9661 158.595C20.815 157.283 20.1919 156.266 19.0967 155.545C18.0015 154.815 16.6231 154.45 14.9614 154.45C13.7718 154.45 12.7427 154.635 11.8741 155.005C11.0055 155.365 10.3304 155.864 9.84892 156.502C9.37685 157.13 9.14082 157.847 9.14082 158.651C9.14082 159.325 9.30132 159.908 9.62232 160.397C9.95277 160.887 10.3823 161.299 10.9111 161.631C11.4492 161.955 12.0251 162.227 12.6388 162.449C13.2525 162.662 13.8426 162.837 14.4091 162.976L17.2415 163.697C18.1667 163.919 19.1156 164.219 20.0881 164.598C21.0605 164.977 21.9622 165.476 22.793 166.095C23.6238 166.714 24.2942 167.481 24.804 168.396C25.3233 169.312 25.5829 170.407 25.5829 171.682C25.5829 173.29 25.1581 174.718 24.3083 175.966C23.4681 177.213 22.2454 178.198 20.6404 178.919C19.0448 179.64 17.114 180 14.8481 180C12.6766 180 10.7978 179.663 9.21163 178.988C7.62548 178.313 6.38394 177.357 5.48701 176.118C4.59008 174.871 4.09441 173.392 4 171.682H8.39023C8.4752 172.708 8.81509 173.563 9.40989 174.247C10.0141 174.921 10.7836 175.425 11.7183 175.758C12.6624 176.081 13.6963 176.243 14.8198 176.243C16.0566 176.243 17.1565 176.054 18.1195 175.675C19.092 175.286 19.8568 174.75 20.4138 174.066C20.9708 173.373 21.2493 172.565 21.2493 171.64C21.2493 170.799 21.0039 170.111 20.5129 169.575C20.0314 169.039 19.3752 168.595 18.5444 168.244C17.723 167.893 16.793 167.583 15.7545 167.315L12.3273 166.4C10.0047 165.781 8.16364 164.871 6.80408 163.669C5.45397 162.468 4.77891 160.878 4.77891 158.9C4.77891 157.264 5.2321 155.836 6.13847 154.616C7.04484 153.396 8.27221 152.449 9.82059 151.774C11.369 151.091 13.1156 150.749 15.0605 150.749C17.0243 150.749 18.7568 151.086 20.258 151.761C21.7686 152.435 22.9582 153.364 23.8268 154.547C24.6954 155.721 25.1486 157.07 25.1864 158.595H20.9661ZM39.6352 179.958C37.5959 179.958 35.8162 179.501 34.2961 178.586C32.7761 177.671 31.5959 176.391 30.7556 174.746C29.9153 173.101 29.4952 171.178 29.4952 168.979C29.4952 166.77 29.9153 164.838 30.7556 163.184C31.5959 161.53 32.7761 160.245 34.2961 159.33C35.8162 158.415 37.5959 157.957 39.6352 157.957C41.6745 157.957 43.4542 158.415 44.9743 159.33C46.4943 160.245 47.6745 161.53 48.5148 163.184C49.3551 164.838 49.7752 166.77 49.7752 168.979C49.7752 171.178 49.3551 173.101 48.5148 174.746C47.6745 176.391 46.4943 177.671 44.9743 178.586C43.4542 179.501 41.6745 179.958 39.6352 179.958ZM39.6494 176.479C40.9711 176.479 42.0663 176.137 42.935 175.453C43.8036 174.769 44.4456 173.859 44.861 172.722C45.2858 171.585 45.4983 170.333 45.4983 168.965C45.4983 167.606 45.2858 166.359 44.861 165.222C44.4456 164.076 43.8036 163.156 42.935 162.463C42.0663 161.77 40.9711 161.423 39.6494 161.423C38.3181 161.423 37.2135 161.77 36.3354 162.463C35.4668 163.156 34.8201 164.076 34.3952 165.222C33.9798 166.359 33.7721 167.606 33.7721 168.965C33.7721 170.333 33.9798 171.585 34.3952 172.722C34.8201 173.859 35.4668 174.769 36.3354 175.453C37.2135 176.137 38.3181 176.479 39.6494 176.479ZM63.6646 179.958C61.5592 179.958 59.7465 179.492 58.2264 178.558C56.7158 177.616 55.5545 176.317 54.7425 174.663C53.9306 173.008 53.5246 171.114 53.5246 168.979C53.5246 166.816 53.94 164.908 54.7709 163.253C55.6017 161.59 56.7724 160.291 58.283 159.358C59.7937 158.424 61.5734 157.957 63.6221 157.957C65.2744 157.957 66.7472 158.258 68.0407 158.859C69.3342 159.45 70.3774 160.282 71.1705 161.354C71.973 162.426 72.4498 163.678 72.6009 165.111H68.4797C68.2531 164.113 67.7338 163.253 66.9219 162.532C66.1194 161.811 65.0431 161.451 63.6929 161.451C62.5128 161.451 61.4789 161.756 60.5915 162.366C59.7134 162.967 59.0289 163.826 58.538 164.944C58.047 166.054 57.8015 167.366 57.8015 168.882C57.8015 170.434 58.0423 171.774 58.5238 172.902C59.0053 174.03 59.6851 174.903 60.5631 175.522C61.4506 176.141 62.4939 176.451 63.6929 176.451C64.4955 176.451 65.2224 176.308 65.8739 176.021C66.5348 175.726 67.0871 175.305 67.5308 174.76C67.984 174.214 68.3003 173.558 68.4797 172.791H72.6009C72.4498 174.168 71.9919 175.397 71.2271 176.479C70.4624 177.56 69.438 178.41 68.154 179.03C66.8794 179.649 65.3829 179.958 63.6646 179.958ZM77.1292 179.529V158.235H81.3636V179.529H77.1292ZM79.2676 154.949C78.5312 154.949 77.8986 154.709 77.3699 154.228C76.8506 153.738 76.591 153.156 76.591 152.482C76.591 151.798 76.8506 151.215 77.3699 150.735C77.8986 150.245 78.5312 150 79.2676 150C80.0041 150 80.6319 150.245 81.1512 150.735C81.6799 151.215 81.9443 151.798 81.9443 152.482C81.9443 153.156 81.6799 153.738 81.1512 154.228C80.6319 154.709 80.0041 154.949 79.2676 154.949ZM93.3907 180C92.0123 180 90.766 179.75 89.6519 179.251C88.5378 178.743 87.6551 178.008 87.0036 177.047C86.3616 176.086 86.0406 174.908 86.0406 173.512C86.0406 172.31 86.2767 171.322 86.7487 170.545C87.2208 169.769 87.8581 169.154 88.6606 168.701C89.4631 168.249 90.36 167.907 91.3514 167.676C92.3427 167.444 93.353 167.269 94.3821 167.149C95.685 167.001 96.7424 166.881 97.5543 166.788C98.3663 166.687 98.9564 166.525 99.3246 166.303C99.6928 166.081 99.8769 165.721 99.8769 165.222V165.125C99.8769 163.914 99.5276 162.976 98.8289 162.311C98.1397 161.645 97.1106 161.312 95.7416 161.312C94.316 161.312 93.1924 161.622 92.371 162.241C91.5591 162.851 90.9973 163.531 90.6858 164.279L86.7062 163.392C87.1783 162.098 87.8675 161.054 88.7739 160.259C89.6897 159.455 90.7424 158.872 91.932 158.512C93.1216 158.142 94.3726 157.957 95.685 157.957C96.5536 157.957 97.4741 158.059 98.4466 158.262C99.4285 158.457 100.344 158.817 101.194 159.344C102.053 159.871 102.757 160.624 103.304 161.604C103.852 162.574 104.126 163.835 104.126 165.388V179.529H99.9902V176.617H99.8203C99.5465 177.153 99.1358 177.68 98.5882 178.198C98.0406 178.715 97.3372 179.145 96.478 179.487C95.6189 179.829 94.5898 180 93.3907 180ZM94.3112 176.673C95.482 176.673 96.4827 176.446 97.3136 175.993C98.1539 175.541 98.7912 174.949 99.2255 174.219C99.6692 173.48 99.8911 172.69 99.8911 171.848V169.104C99.74 169.251 99.4473 169.39 99.013 169.519C98.5882 169.64 98.1019 169.746 97.5543 169.838C97.0068 169.921 96.4733 170 95.954 170.074C95.4348 170.139 95.0005 170.194 94.6511 170.24C93.8297 170.342 93.0791 170.513 92.3994 170.753C91.729 170.993 91.1909 171.34 90.7849 171.793C90.3884 172.237 90.1901 172.828 90.1901 173.567C90.1901 174.593 90.5772 175.37 91.3514 175.896C92.1256 176.414 93.1122 176.673 94.3112 176.673ZM114 151.137V179.529H109.766V151.137H114Z" fill="white"/>
<path d="M20.9661 158.595C20.815 157.283 20.1919 156.266 19.0967 155.545C18.0015 154.815 16.6231 154.45 14.9614 154.45C13.7718 154.45 12.7427 154.635 11.8741 155.005C11.0055 155.365 10.3304 155.864 9.84892 156.502C9.37685 157.13 9.14082 157.847 9.14082 158.651C9.14082 159.325 9.30132 159.908 9.62232 160.397C9.95277 160.887 10.3823 161.299 10.9111 161.631C11.4492 161.955 12.0251 162.227 12.6388 162.449C13.2525 162.662 13.8426 162.837 14.4091 162.976L17.2415 163.697C18.1667 163.919 19.1156 164.219 20.0881 164.598C21.0605 164.977 21.9622 165.476 22.793 166.095C23.6238 166.714 24.2942 167.481 24.804 168.396C25.3233 169.312 25.5829 170.407 25.5829 171.682C25.5829 173.29 25.1581 174.718 24.3083 175.966C23.4681 177.213 22.2454 178.198 20.6404 178.919C19.0448 179.64 17.114 180 14.8481 180C12.6766 180 10.7978 179.663 9.21163 178.988C7.62548 178.313 6.38394 177.357 5.48701 176.118C4.59008 174.871 4.09441 173.392 4 171.682H8.39023C8.4752 172.708 8.81509 173.563 9.40989 174.247C10.0141 174.921 10.7836 175.425 11.7183 175.758C12.6624 176.081 13.6963 176.243 14.8198 176.243C16.0566 176.243 17.1565 176.054 18.1195 175.675C19.092 175.286 19.8568 174.75 20.4138 174.066C20.9708 173.373 21.2493 172.565 21.2493 171.64C21.2493 170.799 21.0039 170.111 20.5129 169.575C20.0314 169.039 19.3752 168.595 18.5444 168.244C17.723 167.893 16.793 167.583 15.7545 167.315L12.3273 166.4C10.0047 165.781 8.16364 164.871 6.80408 163.669C5.45397 162.468 4.77891 160.878 4.77891 158.9C4.77891 157.264 5.2321 155.836 6.13847 154.616C7.04484 153.396 8.27221 152.449 9.82059 151.774C11.369 151.091 13.1156 150.749 15.0605 150.749C17.0243 150.749 18.7568 151.086 20.258 151.761C21.7686 152.435 22.9582 153.364 23.8268 154.547C24.6954 155.721 25.1486 157.07 25.1864 158.595H20.9661ZM39.6352 179.958C37.5959 179.958 35.8162 179.501 34.2961 178.586C32.7761 177.671 31.5959 176.391 30.7556 174.746C29.9153 173.101 29.4952 171.178 29.4952 168.979C29.4952 166.77 29.9153 164.838 30.7556 163.184C31.5959 161.53 32.7761 160.245 34.2961 159.33C35.8162 158.415 37.5959 157.957 39.6352 157.957C41.6745 157.957 43.4542 158.415 44.9743 159.33C46.4943 160.245 47.6745 161.53 48.5148 163.184C49.3551 164.838 49.7752 166.77 49.7752 168.979C49.7752 171.178 49.3551 173.101 48.5148 174.746C47.6745 176.391 46.4943 177.671 44.9743 178.586C43.4542 179.501 41.6745 179.958 39.6352 179.958ZM39.6494 176.479C40.9711 176.479 42.0663 176.137 42.935 175.453C43.8036 174.769 44.4456 173.859 44.861 172.722C45.2858 171.585 45.4983 170.333 45.4983 168.965C45.4983 167.606 45.2858 166.359 44.861 165.222C44.4456 164.076 43.8036 163.156 42.935 162.463C42.0663 161.77 40.9711 161.423 39.6494 161.423C38.3181 161.423 37.2135 161.77 36.3354 162.463C35.4668 163.156 34.8201 164.076 34.3952 165.222C33.9798 166.359 33.7721 167.606 33.7721 168.965C33.7721 170.333 33.9798 171.585 34.3952 172.722C34.8201 173.859 35.4668 174.769 36.3354 175.453C37.2135 176.137 38.3181 176.479 39.6494 176.479ZM63.6646 179.958C61.5592 179.958 59.7465 179.492 58.2264 178.558C56.7158 177.616 55.5545 176.317 54.7425 174.663C53.9306 173.008 53.5246 171.114 53.5246 168.979C53.5246 166.816 53.94 164.908 54.7709 163.253C55.6017 161.59 56.7724 160.291 58.283 159.358C59.7937 158.424 61.5734 157.957 63.6221 157.957C65.2744 157.957 66.7472 158.258 68.0407 158.859C69.3342 159.45 70.3774 160.282 71.1705 161.354C71.973 162.426 72.4498 163.678 72.6009 165.111H68.4797C68.2531 164.113 67.7338 163.253 66.9219 162.532C66.1194 161.811 65.0431 161.451 63.6929 161.451C62.5128 161.451 61.4789 161.756 60.5915 162.366C59.7134 162.967 59.0289 163.826 58.538 164.944C58.047 166.054 57.8015 167.366 57.8015 168.882C57.8015 170.434 58.0423 171.774 58.5238 172.902C59.0053 174.03 59.6851 174.903 60.5631 175.522C61.4506 176.141 62.4939 176.451 63.6929 176.451C64.4955 176.451 65.2224 176.308 65.8739 176.021C66.5348 175.726 67.0871 175.305 67.5308 174.76C67.984 174.214 68.3003 173.558 68.4797 172.791H72.6009C72.4498 174.168 71.9919 175.397 71.2271 176.479C70.4624 177.56 69.438 178.41 68.154 179.03C66.8794 179.649 65.3829 179.958 63.6646 179.958ZM77.1292 179.529V158.235H81.3636V179.529H77.1292ZM79.2676 154.949C78.5312 154.949 77.8986 154.709 77.3699 154.228C76.8506 153.738 76.591 153.156 76.591 152.482C76.591 151.798 76.8506 151.215 77.3699 150.735C77.8986 150.245 78.5312 150 79.2676 150C80.0041 150 80.6319 150.245 81.1512 150.735C81.6799 151.215 81.9443 151.798 81.9443 152.482C81.9443 153.156 81.6799 153.738 81.1512 154.228C80.6319 154.709 80.0041 154.949 79.2676 154.949ZM93.3907 180C92.0123 180 90.766 179.75 89.6519 179.251C88.5378 178.743 87.6551 178.008 87.0036 177.047C86.3616 176.086 86.0406 174.908 86.0406 173.512C86.0406 172.31 86.2767 171.322 86.7487 170.545C87.2208 169.769 87.8581 169.154 88.6606 168.701C89.4631 168.249 90.36 167.907 91.3514 167.676C92.3427 167.444 93.353 167.269 94.3821 167.149C95.685 167.001 96.7424 166.881 97.5543 166.788C98.3663 166.687 98.9564 166.525 99.3246 166.303C99.6928 166.081 99.8769 165.721 99.8769 165.222V165.125C99.8769 163.914 99.5276 162.976 98.8289 162.311C98.1397 161.645 97.1106 161.312 95.7416 161.312C94.316 161.312 93.1924 161.622 92.371 162.241C91.5591 162.851 90.9973 163.531 90.6858 164.279L86.7062 163.392C87.1783 162.098 87.8675 161.054 88.7739 160.259C89.6897 159.455 90.7424 158.872 91.932 158.512C93.1216 158.142 94.3726 157.957 95.685 157.957C96.5536 157.957 97.4741 158.059 98.4466 158.262C99.4285 158.457 100.344 158.817 101.194 159.344C102.053 159.871 102.757 160.624 103.304 161.604C103.852 162.574 104.126 163.835 104.126 165.388V179.529H99.9902V176.617H99.8203C99.5465 177.153 99.1358 177.68 98.5882 178.198C98.0406 178.715 97.3372 179.145 96.478 179.487C95.6189 179.829 94.5898 180 93.3907 180ZM94.3112 176.673C95.482 176.673 96.4827 176.446 97.3136 175.993C98.1539 175.541 98.7912 174.949 99.2255 174.219C99.6692 173.48 99.8911 172.69 99.8911 171.848V169.104C99.74 169.251 99.4473 169.39 99.013 169.519C98.5882 169.64 98.1019 169.746 97.5543 169.838C97.0068 169.921 96.4733 170 95.954 170.074C95.4348 170.139 95.0005 170.194 94.6511 170.24C93.8297 170.342 93.0791 170.513 92.3994 170.753C91.729 170.993 91.1909 171.34 90.7849 171.793C90.3884 172.237 90.1901 172.828 90.1901 173.567C90.1901 174.593 90.5772 175.37 91.3514 175.896C92.1256 176.414 93.1122 176.673 94.3112 176.673ZM114 151.137V179.529H109.766V151.137H114Z" fill="white"/>
<path d="M20.9661 158.595C20.815 157.283 20.1919 156.266 19.0967 155.545C18.0015 154.815 16.6231 154.45 14.9614 154.45C13.7718 154.45 12.7427 154.635 11.8741 155.005C11.0055 155.365 10.3304 155.864 9.84892 156.502C9.37685 157.13 9.14082 157.847 9.14082 158.651C9.14082 159.325 9.30132 159.908 9.62232 160.397C9.95277 160.887 10.3823 161.299 10.9111 161.631C11.4492 161.955 12.0251 162.227 12.6388 162.449C13.2525 162.662 13.8426 162.837 14.4091 162.976L17.2415 163.697C18.1667 163.919 19.1156 164.219 20.0881 164.598C21.0605 164.977 21.9622 165.476 22.793 166.095C23.6238 166.714 24.2942 167.481 24.804 168.396C25.3233 169.312 25.5829 170.407 25.5829 171.682C25.5829 173.29 25.1581 174.718 24.3083 175.966C23.4681 177.213 22.2454 178.198 20.6404 178.919C19.0448 179.64 17.114 180 14.8481 180C12.6766 180 10.7978 179.663 9.21163 178.988C7.62548 178.313 6.38394 177.357 5.48701 176.118C4.59008 174.871 4.09441 173.392 4 171.682H8.39023C8.4752 172.708 8.81509 173.563 9.40989 174.247C10.0141 174.921 10.7836 175.425 11.7183 175.758C12.6624 176.081 13.6963 176.243 14.8198 176.243C16.0566 176.243 17.1565 176.054 18.1195 175.675C19.092 175.286 19.8568 174.75 20.4138 174.066C20.9708 173.373 21.2493 172.565 21.2493 171.64C21.2493 170.799 21.0039 170.111 20.5129 169.575C20.0314 169.039 19.3752 168.595 18.5444 168.244C17.723 167.893 16.793 167.583 15.7545 167.315L12.3273 166.4C10.0047 165.781 8.16364 164.871 6.80408 163.669C5.45397 162.468 4.77891 160.878 4.77891 158.9C4.77891 157.264 5.2321 155.836 6.13847 154.616C7.04484 153.396 8.27221 152.449 9.82059 151.774C11.369 151.091 13.1156 150.749 15.0605 150.749C17.0243 150.749 18.7568 151.086 20.258 151.761C21.7686 152.435 22.9582 153.364 23.8268 154.547C24.6954 155.721 25.1486 157.07 25.1864 158.595H20.9661ZM39.6352 179.958C37.5959 179.958 35.8162 179.501 34.2961 178.586C32.7761 177.671 31.5959 176.391 30.7556 174.746C29.9153 173.101 29.4952 171.178 29.4952 168.979C29.4952 166.77 29.9153 164.838 30.7556 163.184C31.5959 161.53 32.7761 160.245 34.2961 159.33C35.8162 158.415 37.5959 157.957 39.6352 157.957C41.6745 157.957 43.4542 158.415 44.9743 159.33C46.4943 160.245 47.6745 161.53 48.5148 163.184C49.3551 164.838 49.7752 166.77 49.7752 168.979C49.7752 171.178 49.3551 173.101 48.5148 174.746C47.6745 176.391 46.4943 177.671 44.9743 178.586C43.4542 179.501 41.6745 179.958 39.6352 179.958ZM39.6494 176.479C40.9711 176.479 42.0663 176.137 42.935 175.453C43.8036 174.769 44.4456 173.859 44.861 172.722C45.2858 171.585 45.4983 170.333 45.4983 168.965C45.4983 167.606 45.2858 166.359 44.861 165.222C44.4456 164.076 43.8036 163.156 42.935 162.463C42.0663 161.77 40.9711 161.423 39.6494 161.423C38.3181 161.423 37.2135 161.77 36.3354 162.463C35.4668 163.156 34.8201 164.076 34.3952 165.222C33.9798 166.359 33.7721 167.606 33.7721 168.965C33.7721 170.333 33.9798 171.585 34.3952 172.722C34.8201 173.859 35.4668 174.769 36.3354 175.453C37.2135 176.137 38.3181 176.479 39.6494 176.479ZM63.6646 179.958C61.5592 179.958 59.7465 179.492 58.2264 178.558C56.7158 177.616 55.5545 176.317 54.7425 174.663C53.9306 173.008 53.5246 171.114 53.5246 168.979C53.5246 166.816 53.94 164.908 54.7709 163.253C55.6017 161.59 56.7724 160.291 58.283 159.358C59.7937 158.424 61.5734 157.957 63.6221 157.957C65.2744 157.957 66.7472 158.258 68.0407 158.859C69.3342 159.45 70.3774 160.282 71.1705 161.354C71.973 162.426 72.4498 163.678 72.6009 165.111H68.4797C68.2531 164.113 67.7338 163.253 66.9219 162.532C66.1194 161.811 65.0431 161.451 63.6929 161.451C62.5128 161.451 61.4789 161.756 60.5915 162.366C59.7134 162.967 59.0289 163.826 58.538 164.944C58.047 166.054 57.8015 167.366 57.8015 168.882C57.8015 170.434 58.0423 171.774 58.5238 172.902C59.0053 174.03 59.6851 174.903 60.5631 175.522C61.4506 176.141 62.4939 176.451 63.6929 176.451C64.4955 176.451 65.2224 176.308 65.8739 176.021C66.5348 175.726 67.0871 175.305 67.5308 174.76C67.984 174.214 68.3003 173.558 68.4797 172.791H72.6009C72.4498 174.168 71.9919 175.397 71.2271 176.479C70.4624 177.56 69.438 178.41 68.154 179.03C66.8794 179.649 65.3829 179.958 63.6646 179.958ZM77.1292 179.529V158.235H81.3636V179.529H77.1292ZM79.2676 154.949C78.5312 154.949 77.8986 154.709 77.3699 154.228C76.8506 153.738 76.591 153.156 76.591 152.482C76.591 151.798 76.8506 151.215 77.3699 150.735C77.8986 150.245 78.5312 150 79.2676 150C80.0041 150 80.6319 150.245 81.1512 150.735C81.6799 151.215 81.9443 151.798 81.9443 152.482C81.9443 153.156 81.6799 153.738 81.1512 154.228C80.6319 154.709 80.0041 154.949 79.2676 154.949ZM93.3907 180C92.0123 180 90.766 179.75 89.6519 179.251C88.5378 178.743 87.6551 178.008 87.0036 177.047C86.3616 176.086 86.0406 174.908 86.0406 173.512C86.0406 172.31 86.2767 171.322 86.7487 170.545C87.2208 169.769 87.8581 169.154 88.6606 168.701C89.4631 168.249 90.36 167.907 91.3514 167.676C92.3427 167.444 93.353 167.269 94.3821 167.149C95.685 167.001 96.7424 166.881 97.5543 166.788C98.3663 166.687 98.9564 166.525 99.3246 166.303C99.6928 166.081 99.8769 165.721 99.8769 165.222V165.125C99.8769 163.914 99.5276 162.976 98.8289 162.311C98.1397 161.645 97.1106 161.312 95.7416 161.312C94.316 161.312 93.1924 161.622 92.371 162.241C91.5591 162.851 90.9973 163.531 90.6858 164.279L86.7062 163.392C87.1783 162.098 87.8675 161.054 88.7739 160.259C89.6897 159.455 90.7424 158.872 91.932 158.512C93.1216 158.142 94.3726 157.957 95.685 157.957C96.5536 157.957 97.4741 158.059 98.4466 158.262C99.4285 158.457 100.344 158.817 101.194 159.344C102.053 159.871 102.757 160.624 103.304 161.604C103.852 162.574 104.126 163.835 104.126 165.388V179.529H99.9902V176.617H99.8203C99.5465 177.153 99.1358 177.68 98.5882 178.198C98.0406 178.715 97.3372 179.145 96.478 179.487C95.6189 179.829 94.5898 180 93.3907 180ZM94.3112 176.673C95.482 176.673 96.4827 176.446 97.3136 175.993C98.1539 175.541 98.7912 174.949 99.2255 174.219C99.6692 173.48 99.8911 172.69 99.8911 171.848V169.104C99.74 169.251 99.4473 169.39 99.013 169.519C98.5882 169.64 98.1019 169.746 97.5543 169.838C97.0068 169.921 96.4733 170 95.954 170.074C95.4348 170.139 95.0005 170.194 94.6511 170.24C93.8297 170.342 93.0791 170.513 92.3994 170.753C91.729 170.993 91.1909 171.34 90.7849 171.793C90.3884 172.237 90.1901 172.828 90.1901 173.567C90.1901 174.593 90.5772 175.37 91.3514 175.896C92.1256 176.414 93.1122 176.673 94.3112 176.673ZM114 151.137V179.529H109.766V151.137H114Z" fill="white"/>
<path d="M20.9661 158.595C20.815 157.283 20.1919 156.266 19.0967 155.545C18.0015 154.815 16.6231 154.45 14.9614 154.45C13.7718 154.45 12.7427 154.635 11.8741 155.005C11.0055 155.365 10.3304 155.864 9.84892 156.502C9.37685 157.13 9.14082 157.847 9.14082 158.651C9.14082 159.325 9.30132 159.908 9.62232 160.397C9.95277 160.887 10.3823 161.299 10.9111 161.631C11.4492 161.955 12.0251 162.227 12.6388 162.449C13.2525 162.662 13.8426 162.837 14.4091 162.976L17.2415 163.697C18.1667 163.919 19.1156 164.219 20.0881 164.598C21.0605 164.977 21.9622 165.476 22.793 166.095C23.6238 166.714 24.2942 167.481 24.804 168.396C25.3233 169.312 25.5829 170.407 25.5829 171.682C25.5829 173.29 25.1581 174.718 24.3083 175.966C23.4681 177.213 22.2454 178.198 20.6404 178.919C19.0448 179.64 17.114 180 14.8481 180C12.6766 180 10.7978 179.663 9.21163 178.988C7.62548 178.313 6.38394 177.357 5.48701 176.118C4.59008 174.871 4.09441 173.392 4 171.682H8.39023C8.4752 172.708 8.81509 173.563 9.40989 174.247C10.0141 174.921 10.7836 175.425 11.7183 175.758C12.6624 176.081 13.6963 176.243 14.8198 176.243C16.0566 176.243 17.1565 176.054 18.1195 175.675C19.092 175.286 19.8568 174.75 20.4138 174.066C20.9708 173.373 21.2493 172.565 21.2493 171.64C21.2493 170.799 21.0039 170.111 20.5129 169.575C20.0314 169.039 19.3752 168.595 18.5444 168.244C17.723 167.893 16.793 167.583 15.7545 167.315L12.3273 166.4C10.0047 165.781 8.16364 164.871 6.80408 163.669C5.45397 162.468 4.77891 160.878 4.77891 158.9C4.77891 157.264 5.2321 155.836 6.13847 154.616C7.04484 153.396 8.27221 152.449 9.82059 151.774C11.369 151.091 13.1156 150.749 15.0605 150.749C17.0243 150.749 18.7568 151.086 20.258 151.761C21.7686 152.435 22.9582 153.364 23.8268 154.547C24.6954 155.721 25.1486 157.07 25.1864 158.595H20.9661ZM39.6352 179.958C37.5959 179.958 35.8162 179.501 34.2961 178.586C32.7761 177.671 31.5959 176.391 30.7556 174.746C29.9153 173.101 29.4952 171.178 29.4952 168.979C29.4952 166.77 29.9153 164.838 30.7556 163.184C31.5959 161.53 32.7761 160.245 34.2961 159.33C35.8162 158.415 37.5959 157.957 39.6352 157.957C41.6745 157.957 43.4542 158.415 44.9743 159.33C46.4943 160.245 47.6745 161.53 48.5148 163.184C49.3551 164.838 49.7752 166.77 49.7752 168.979C49.7752 171.178 49.3551 173.101 48.5148 174.746C47.6745 176.391 46.4943 177.671 44.9743 178.586C43.4542 179.501 41.6745 179.958 39.6352 179.958ZM39.6494 176.479C40.9711 176.479 42.0663 176.137 42.935 175.453C43.8036 174.769 44.4456 173.859 44.861 172.722C45.2858 171.585 45.4983 170.333 45.4983 168.965C45.4983 167.606 45.2858 166.359 44.861 165.222C44.4456 164.076 43.8036 163.156 42.935 162.463C42.0663 161.77 40.9711 161.423 39.6494 161.423C38.3181 161.423 37.2135 161.77 36.3354 162.463C35.4668 163.156 34.8201 164.076 34.3952 165.222C33.9798 166.359 33.7721 167.606 33.7721 168.965C33.7721 170.333 33.9798 171.585 34.3952 172.722C34.8201 173.859 35.4668 174.769 36.3354 175.453C37.2135 176.137 38.3181 176.479 39.6494 176.479ZM63.6646 179.958C61.5592 179.958 59.7465 179.492 58.2264 178.558C56.7158 177.616 55.5545 176.317 54.7425 174.663C53.9306 173.008 53.5246 171.114 53.5246 168.979C53.5246 166.816 53.94 164.908 54.7709 163.253C55.6017 161.59 56.7724 160.291 58.283 159.358C59.7937 158.424 61.5734 157.957 63.6221 157.957C65.2744 157.957 66.7472 158.258 68.0407 158.859C69.3342 159.45 70.3774 160.282 71.1705 161.354C71.973 162.426 72.4498 163.678 72.6009 165.111H68.4797C68.2531 164.113 67.7338 163.253 66.9219 162.532C66.1194 161.811 65.0431 161.451 63.6929 161.451C62.5128 161.451 61.4789 161.756 60.5915 162.366C59.7134 162.967 59.0289 163.826 58.538 164.944C58.047 166.054 57.8015 167.366 57.8015 168.882C57.8015 170.434 58.0423 171.774 58.5238 172.902C59.0053 174.03 59.6851 174.903 60.5631 175.522C61.4506 176.141 62.4939 176.451 63.6929 176.451C64.4955 176.451 65.2224 176.308 65.8739 176.021C66.5348 175.726 67.0871 175.305 67.5308 174.76C67.984 174.214 68.3003 173.558 68.4797 172.791H72.6009C72.4498 174.168 71.9919 175.397 71.2271 176.479C70.4624 177.56 69.438 178.41 68.154 179.03C66.8794 179.649 65.3829 179.958 63.6646 179.958ZM77.1292 179.529V158.235H81.3636V179.529H77.1292ZM79.2676 154.949C78.5312 154.949 77.8986 154.709 77.3699 154.228C76.8506 153.738 76.591 153.156 76.591 152.482C76.591 151.798 76.8506 151.215 77.3699 150.735C77.8986 150.245 78.5312 150 79.2676 150C80.0041 150 80.6319 150.245 81.1512 150.735C81.6799 151.215 81.9443 151.798 81.9443 152.482C81.9443 153.156 81.6799 153.738 81.1512 154.228C80.6319 154.709 80.0041 154.949 79.2676 154.949ZM93.3907 180C92.0123 180 90.766 179.75 89.6519 179.251C88.5378 178.743 87.6551 178.008 87.0036 177.047C86.3616 176.086 86.0406 174.908 86.0406 173.512C86.0406 172.31 86.2767 171.322 86.7487 170.545C87.2208 169.769 87.8581 169.154 88.6606 168.701C89.4631 168.249 90.36 167.907 91.3514 167.676C92.3427 167.444 93.353 167.269 94.3821 167.149C95.685 167.001 96.7424 166.881 97.5543 166.788C98.3663 166.687 98.9564 166.525 99.3246 166.303C99.6928 166.081 99.8769 165.721 99.8769 165.222V165.125C99.8769 163.914 99.5276 162.976 98.8289 162.311C98.1397 161.645 97.1106 161.312 95.7416 161.312C94.316 161.312 93.1924 161.622 92.371 162.241C91.5591 162.851 90.9973 163.531 90.6858 164.279L86.7062 163.392C87.1783 162.098 87.8675 161.054 88.7739 160.259C89.6897 159.455 90.7424 158.872 91.932 158.512C93.1216 158.142 94.3726 157.957 95.685 157.957C96.5536 157.957 97.4741 158.059 98.4466 158.262C99.4285 158.457 100.344 158.817 101.194 159.344C102.053 159.871 102.757 160.624 103.304 161.604C103.852 162.574 104.126 163.835 104.126 165.388V179.529H99.9902V176.617H99.8203C99.5465 177.153 99.1358 177.68 98.5882 178.198C98.0406 178.715 97.3372 179.145 96.478 179.487C95.6189 179.829 94.5898 180 93.3907 180ZM94.3112 176.673C95.482 176.673 96.4827 176.446 97.3136 175.993C98.1539 175.541 98.7912 174.949 99.2255 174.219C99.6692 173.48 99.8911 172.69 99.8911 171.848V169.104C99.74 169.251 99.4473 169.39 99.013 169.519C98.5882 169.64 98.1019 169.746 97.5543 169.838C97.0068 169.921 96.4733 170 95.954 170.074C95.4348 170.139 95.0005 170.194 94.6511 170.24C93.8297 170.342 93.0791 170.513 92.3994 170.753C91.729 170.993 91.1909 171.34 90.7849 171.793C90.3884 172.237 90.1901 172.828 90.1901 173.567C90.1901 174.593 90.5772 175.37 91.3514 175.896C92.1256 176.414 93.1122 176.673 94.3112 176.673ZM114 151.137V179.529H109.766V151.137H114Z" fill="white"/>
</svg>
