<svg width="414" height="72" viewBox="0 0 414 72" fill="none" xmlns="http://www.w3.org/2000/svg">
<rect width="414" height="72" fill="#F3F3F3"/>
<path d="M45 46H75V42.6667H45V46ZM45 37.6667H75V34.3333H45V37.6667ZM45 26V29.3333H75V26H45Z" fill="#8D8D8D"/>
<path d="M169.667 24.3333V47.6667H146.333V24.3333H169.667ZM169.667 21H146.333C144.5 21 143 22.5 143 24.3333V47.6667C143 49.5 144.5 51 146.333 51H169.667C171.5 51 173 49.5 173 47.6667V24.3333C173 22.5 171.5 21 169.667 21ZM161.567 35.7667L156.567 42.2167L153 37.9L148 44.3333H168L161.567 35.7667Z" fill="#8D8D8D"/>
<path d="M252.666 43.5L262.666 36L252.666 28.5V43.5ZM256 19.3333C246.8 19.3333 239.333 26.8 239.333 36C239.333 45.2 246.8 52.6666 256 52.6666C265.2 52.6666 272.666 45.2 272.666 36C272.666 26.8 265.2 19.3333 256 19.3333ZM256 49.3333C248.65 49.3333 242.666 43.35 242.666 36C242.666 28.65 248.65 22.6667 256 22.6667C263.35 22.6667 269.333 28.65 269.333 36C269.333 43.35 263.35 49.3333 256 49.3333Z" fill="#8D8D8D"/>
<path d="M370.667 26H362.333V39.6333C361.817 39.45 361.25 39.3333 360.667 39.3333C357.9 39.3333 355.667 41.5667 355.667 44.3333C355.667 47.1 357.9 49.3333 360.667 49.3333C363.433 49.3333 365.667 47.1 365.667 44.3333V29.3333H370.667V26ZM359 26H339V29.3333H359V26ZM359 32.6667H339V36H359V32.6667ZM352.333 39.3333H339V42.6667H352.333V39.3333ZM359 44.3333C359 43.4167 359.75 42.6667 360.667 42.6667C361.583 42.6667 362.333 43.4167 362.333 44.3333C362.333 45.25 361.583 46 360.667 46C359.75 46 359 45.25 359 44.3333Z" fill="#8D8D8D"/>
</svg>
