<svg width="18" height="18" viewBox="0 0 18 18" fill="none" xmlns="http://www.w3.org/2000/svg">
<path d="M17.6747 14.9409L13.7596 11.0227C13.0051 10.2677 11.7815 10.2675 11.0268 11.0222C10.2723 11.7767 10.2723 13.0001 11.0268 13.7546L14.9458 17.6737C15.3795 18.1074 16.0934 18.1074 16.5271 17.6737L17.6747 16.5261C18.1084 16.0885 18.1084 15.3707 17.6747 14.9409Z" fill="#AFAFAF"/>
<path d="M9.86445 11.2951C10.2598 11.6905 10.9007 11.6905 11.2961 11.2951C11.6914 10.8998 11.6914 10.2588 11.2961 9.86345L11.1233 9.69067C10.6934 9.26075 10.6479 8.58954 10.8966 8.03478C11.837 5.93783 11.4492 3.38784 9.7282 1.66678C7.50593 -0.555592 3.89426 -0.555592 1.66814 1.66678C-0.557967 3.88915 -0.554128 7.50099 1.66814 9.7272C3.38913 11.4482 5.939 11.8361 8.03586 10.8957C8.5906 10.6469 9.26178 10.6924 9.69168 11.1224L9.86445 11.2951ZM2.77352 8.60642C1.16152 6.99433 1.16152 4.38046 2.77352 2.77221C4.38553 1.16013 6.99929 1.16013 8.60747 2.77221C10.2195 4.38429 10.2195 6.99817 8.60747 8.60642C6.99929 10.2185 4.38553 10.2185 2.77352 8.60642Z" fill="#AFAFAF"/>
</svg>
