<svg width="24" height="24" viewBox="0 0 24 24" fill="none" xmlns="http://www.w3.org/2000/svg">
<path d="M24.0005 4.25358C23.1182 4.63441 22.1703 4.89173 21.1737 5.00805C22.2017 4.40878 22.9704 3.46562 23.3366 2.35453C22.3707 2.91342 21.3135 3.30683 20.2109 3.51763C19.4688 2.74655 18.4862 2.23547 17.4157 2.06373C16.3452 1.89199 15.2466 2.0692 14.2905 2.56785C13.3344 3.06651 12.5744 3.85869 12.1283 4.82143C11.6823 5.78417 11.5752 6.8636 11.8236 7.89212C9.86579 7.79639 7.95021 7.30084 6.20125 6.43764C4.45229 5.57442 2.90902 4.36284 1.6716 2.88153C1.24928 3.59173 1.00672 4.41517 1.00729 5.29213C1.00733 6.08159 1.20746 6.85896 1.58994 7.55527C1.97242 8.25157 2.52541 8.84529 3.19986 9.28372C2.418 9.2595 1.65326 9.05376 0.969314 8.68365L0.969354 8.7454C0.969992 9.85266 1.36399 10.9258 2.08447 11.7828C2.80497 12.6399 3.80759 13.2279 4.9222 13.4473C4.19704 13.6383 3.43664 13.6665 2.69845 13.5295C3.0135 14.4823 3.62653 15.3154 4.45173 15.9123C5.27693 16.5092 6.27297 16.8399 7.30042 16.8583C5.55715 18.1917 3.40362 18.9149 1.18626 18.9117C0.793481 18.9118 0.401017 18.8895 0.0108942 18.8448C2.26254 20.2541 4.88306 21.002 7.55888 20.9991C16.6169 20.9991 21.564 13.6932 21.5599 7.35689C21.5598 7.15103 21.5543 6.94312 21.5447 6.73726C22.5074 6.05892 23.3383 5.21895 23.9984 4.25666L24.0005 4.25358Z" fill="white"/>
</svg>
