<svg width="93" height="175" viewBox="0 0 93 175" fill="none" xmlns="http://www.w3.org/2000/svg">
<path opacity="0.7" d="M45.0181 149.225L45.5995 149.863L45.8653 149.041C46.8397 146.025 49.1984 143.745 52.2776 143.075C57.0997 142.025 62.0617 145.494 63.2299 150.899C63.7542 153.325 63.2715 156.011 62.205 158.711C61.1402 161.408 59.5106 164.076 57.8001 166.443C56.0912 168.808 54.3119 170.857 52.9588 172.317C52.2827 173.046 51.7139 173.627 51.3148 174.025C51.1485 174.191 51.0117 174.325 50.909 174.424C50.7741 174.376 50.5938 174.31 50.3734 174.227C49.8454 174.029 49.0873 173.734 48.17 173.348C46.3345 172.576 43.867 171.442 41.3341 169.996C38.7988 168.547 36.2132 166.794 34.1316 164.787C32.0464 162.776 30.5013 160.543 29.9818 158.139C28.8136 152.734 31.8974 147.513 36.7195 146.463C39.7986 145.792 42.8866 146.886 45.0181 149.225Z" fill="#00B78A" stroke="white"/>
<path opacity="0.7" d="M76.0574 133.972L76.1405 134.89L76.8645 134.324C79.6832 132.121 83.2089 131.512 86.2978 132.856C91.1338 134.962 93.1975 141.393 90.6725 147.236C89.5397 149.857 87.3639 152.063 84.6862 153.901C82.0115 155.737 78.8693 157.182 75.8562 158.294C72.8453 159.405 69.9786 160.177 67.8636 160.671C66.8066 160.918 65.9386 161.095 65.3358 161.211C65.0804 161.26 64.8727 161.297 64.7185 161.325C64.6331 161.192 64.5188 161.013 64.38 160.791C64.0531 160.268 63.5903 159.508 63.0492 158.561C61.9664 156.665 60.5727 154.028 59.3256 151.057C58.0776 148.083 56.983 144.789 56.4889 141.578C55.9941 138.364 56.1077 135.273 57.2303 132.675C59.7553 126.832 65.843 123.951 70.679 126.056C73.7679 127.401 75.734 130.401 76.0574 133.972Z" fill="#E34949" stroke="white"/>
<path opacity="0.8" d="M35.3404 117.525L35.9082 118.133L36.1804 117.345C37.0864 114.723 39.2316 112.728 42.0177 112.133C46.3818 111.202 50.8026 114.217 51.7945 118.901C52.2394 121.002 51.7804 123.339 50.7891 125.702C49.7998 128.059 48.2997 130.397 46.7277 132.473C45.1574 134.547 43.5265 136.345 42.2871 137.627C41.6678 138.267 41.1472 138.777 40.7821 139.126C40.638 139.264 40.5181 139.377 40.426 139.463C40.3069 139.421 40.1514 139.366 39.9633 139.298C39.4878 139.126 38.8049 138.87 37.979 138.536C36.3262 137.865 34.1057 136.881 31.8296 135.623C29.551 134.363 27.2327 132.838 25.3739 131.091C23.5109 129.34 22.1474 127.402 21.7066 125.321C20.7147 120.637 23.5316 116.078 27.8958 115.146C30.6818 114.552 33.4502 115.499 35.3404 117.525Z" fill="#EB73F5" stroke="white"/>
<path opacity="0.6" d="M64.2266 98.3591L64.3825 99.2023L65.0398 98.6545C66.8492 97.1466 69.2444 96.6545 71.4609 97.4596C74.9285 98.7191 76.7152 102.878 75.3183 106.752C74.6939 108.484 73.3246 109.989 71.5611 111.277C69.8014 112.562 67.6872 113.603 65.6368 114.422C63.5891 115.239 61.6215 115.827 60.1646 116.211C59.4367 116.403 58.8376 116.544 58.4214 116.636C58.284 116.667 58.1667 116.692 58.0712 116.712C58.0106 116.635 57.9365 116.539 57.8504 116.427C57.59 116.087 57.2199 115.592 56.7837 114.974C55.9106 113.738 54.7757 112.016 53.7245 110.069C52.6719 108.119 51.7119 105.958 51.1778 103.843C50.6425 101.722 50.5471 99.695 51.1657 97.9793C52.5626 94.1045 56.5866 92.0567 60.0542 93.3163C62.2706 94.1214 63.7974 96.0381 64.2266 98.3591Z" fill="#5FE1D9" stroke="white"/>
<path opacity="0.5" d="M36.8737 76.108L37.3814 76.7234L37.7155 75.9982C38.9169 73.3904 41.3854 71.5059 44.421 71.1099C49.181 70.489 53.6004 73.9301 54.227 78.7703C54.5085 80.9447 53.81 83.2932 52.5413 85.63C51.2757 87.9613 49.4689 90.2323 47.6095 92.2312C45.7523 94.2278 43.8556 95.9391 42.4219 97.152C41.7056 97.758 41.1059 98.2387 40.686 98.5674C40.5079 98.7068 40.3621 98.8189 40.2536 98.9014C40.1276 98.8489 39.9578 98.7772 39.7496 98.6871C39.2597 98.4751 38.5571 98.1615 37.7097 97.7563C36.0139 96.9455 33.7433 95.7703 31.4385 94.3115C29.131 92.8511 26.8053 91.1165 24.9883 89.1906C23.1667 87.2598 21.8953 85.1784 21.6164 83.0241C20.9898 78.1839 24.3862 73.7233 29.1462 73.1024C32.1818 72.7064 35.0481 73.8951 36.8737 76.108Z" fill="#A2FF69" stroke="white"/>
<path opacity="0.4" d="M15.3953 42.5566L15.7178 43.2936L16.237 42.6801C17.9053 40.7084 20.489 39.6759 23.1993 40.0734C27.4475 40.6965 30.4255 44.763 29.7904 49.1256C29.5055 51.0825 28.3332 52.955 26.6661 54.6816C25.0032 56.4039 22.8856 57.9419 20.7872 59.2304C18.6914 60.5173 16.6307 61.5456 15.0926 62.2525C14.3241 62.6057 13.6873 62.8781 13.2435 63.0619C13.0703 63.1336 12.9264 63.1918 12.8157 63.236C12.7223 63.1613 12.601 63.0635 12.4552 62.9441C12.0825 62.6388 11.5503 62.1924 10.9149 61.6304C9.64331 60.5058 7.96268 58.922 6.32175 57.0824C4.67875 55.2404 3.08824 53.1561 1.98515 51.0311C0.879095 48.9004 0.288937 46.7786 0.571142 44.84C1.20621 40.4774 5.21884 37.4362 9.46701 38.0593C12.1774 38.4568 14.3587 40.1882 15.3953 42.5566Z" fill="#9997FD" stroke="white"/>
<path opacity="0.3" d="M45.2789 29.4972L45.868 30.0678L46.1069 29.2819C46.7844 27.0529 48.5337 25.2955 50.8781 24.6856C54.5495 23.7305 58.3999 26.0796 59.4011 29.9572C59.8492 31.6928 59.543 33.6696 58.7785 35.701C58.0161 37.7272 56.8159 39.759 55.5431 41.5759C54.2721 43.3904 52.9394 44.9757 51.9233 46.1081C51.4157 46.6739 50.988 47.1256 50.6879 47.4353C50.5835 47.543 50.4945 47.6335 50.423 47.7056C50.3255 47.677 50.2035 47.6407 50.0596 47.5968C49.647 47.4709 49.0539 47.2823 48.3357 47.0328C46.8981 46.5334 44.9644 45.7916 42.974 44.8212C40.981 43.8494 38.9479 42.6565 37.3015 41.2597C35.6504 39.8591 34.4289 38.2882 33.985 36.5691C32.9839 32.6915 35.213 28.7608 38.8843 27.8057C41.2287 27.1959 43.6083 27.8792 45.2789 29.4972Z" fill="#97CCFD" stroke="white"/>
<path opacity="0.2" d="M65.0487 4.66579L65.1733 5.4928L65.8427 4.99516C67.2117 3.97737 68.987 3.71348 70.5999 4.38264C73.1211 5.42859 74.3266 8.50487 73.1976 11.25C72.6955 12.4708 71.6483 13.5113 70.295 14.3875C68.946 15.2608 67.3347 15.9439 65.7719 16.4665C64.2118 16.9881 62.7173 17.3442 61.6115 17.5699C61.0591 17.6826 60.6051 17.7626 60.2901 17.8142C60.217 17.8261 60.1515 17.8366 60.0939 17.8456C60.0594 17.798 60.0203 17.7437 59.9768 17.683C59.7903 17.4219 59.5254 17.0419 59.2139 16.5687C58.5904 15.6213 57.7833 14.3053 57.0455 12.8269C56.3065 11.3459 55.6452 9.71816 55.3023 8.14496C54.9582 6.56626 54.9455 5.09296 55.4427 3.88414C56.5717 1.13901 59.5874 -0.18607 62.1086 0.859897C63.7216 1.52905 64.7939 2.97432 65.0487 4.66579Z" fill="#3DFF39" stroke="white"/>
<path opacity="0.5" d="M60.2339 62.2513L60.4568 63.0747L61.067 62.4807C62.9467 60.6509 65.5731 59.894 68.1191 60.5949C72.1044 61.6919 74.4627 66.1525 73.2574 70.5639C72.7177 72.5394 71.3289 74.3235 69.4883 75.8987C67.6514 77.4708 65.4008 78.8038 63.2029 79.8841C61.0076 80.9633 58.8808 81.7827 57.3016 82.3325C56.5125 82.6072 55.8614 82.8142 55.4085 82.9522C55.2423 83.0029 55.1029 83.0442 54.9931 83.0762C54.915 82.9919 54.8161 82.8842 54.6988 82.7547C54.3798 82.4022 53.9256 81.8883 53.3872 81.2452C52.3097 79.958 50.8986 78.1575 49.5598 76.1005C48.2195 74.0412 46.9616 71.7398 46.1796 69.45C45.396 67.1552 45.1064 64.9187 45.6411 62.9616C46.8464 58.5502 51.1416 55.9212 55.1269 57.0183C57.6729 57.7192 59.5472 59.7151 60.2339 62.2513Z" fill="#FFDE69" stroke="white"/>
</svg>
