<svg width="15" height="10" viewBox="0 0 15 10" fill="none" xmlns="http://www.w3.org/2000/svg">
<path opacity="0.8" d="M0.838378 5.76938C0.679157 5.57143 0.384604 5.53614 0.180474 5.69053C-0.0236551 5.84492 -0.0600609 6.13055 0.0991606 6.32849L0.838378 5.76938ZM2.91165 9.82496C3.07087 10.023 3.36542 10.0582 3.56955 9.90386C3.77368 9.74941 3.81009 9.4638 3.65086 9.26585L2.91165 9.82496ZM6.84913 3.6715C6.68991 3.86944 6.72632 4.15506 6.93044 4.30946C7.13457 4.46385 7.42913 4.42855 7.58834 4.23061L6.84913 3.6715ZM10.4009 0.734133C10.5601 0.53619 10.5237 0.250563 10.3195 0.0961682C10.1154 -0.0582278 9.82084 -0.0229254 9.66162 0.175018L10.4009 0.734133ZM5.33836 5.76938C5.17914 5.57143 4.88458 5.53614 4.68045 5.69053C4.47633 5.84492 4.43992 6.13055 4.59914 6.32849L5.33836 5.76938ZM7.78123 9.54541L7.41163 9.82496C7.50239 9.93777 7.64267 10.0026 7.79023 9.99986C7.9378 9.99714 8.0754 9.92714 8.16164 9.81105L7.78123 9.54541ZM14.9116 0.720166C15.0629 0.516442 15.0152 0.232381 14.8051 0.0856992C14.595 -0.0609824 14.3021 -0.01474 14.1508 0.188985L14.9116 0.720166ZM0.0991606 6.32849L2.91165 9.82496L3.65086 9.26585L0.838378 5.76938L0.0991606 6.32849ZM3.65086 9.26585L0.838378 5.76938L0.0991606 6.32849L2.91165 9.82496L3.65086 9.26585ZM7.58834 4.23061L10.4009 0.734133L9.66162 0.175018L6.84913 3.6715L7.58834 4.23061ZM9.66162 0.175018L6.84913 3.6715L7.58834 4.23061L10.4009 0.734133L9.66162 0.175018ZM4.59914 6.32849L7.41163 9.82496L8.15084 9.26585L5.33836 5.76938L4.59914 6.32849ZM8.16164 9.81105L14.9116 0.720166L14.1508 0.188985L7.40083 9.27982L8.16164 9.81105Z" fill="#8165EA"/>
</svg>
