<svg width="24" height="5" viewBox="0 0 24 5" fill="none" xmlns="http://www.w3.org/2000/svg">
<path d="M2.4 5C3.72548 5 4.8 3.88071 4.8 2.5C4.8 1.11929 3.72548 0 2.4 0C1.07452 0 0 1.11929 0 2.5C0 3.88071 1.07452 5 2.4 5Z" fill="#8165EA"/>
<path d="M11.9996 5C13.3251 5 14.3996 3.88071 14.3996 2.5C14.3996 1.11929 13.3251 0 11.9996 0C10.6741 0 9.59961 1.11929 9.59961 2.5C9.59961 3.88071 10.6741 5 11.9996 5Z" fill="#8165EA"/>
<path d="M21.6002 5C22.9257 5 24.0002 3.88071 24.0002 2.5C24.0002 1.11929 22.9257 0 21.6002 0C20.2747 0 19.2002 1.11929 19.2002 2.5C19.2002 3.88071 20.2747 5 21.6002 5Z" fill="#8165EA"/>
</svg>
