<svg width="24" height="24" viewBox="0 0 24 24" fill="none" xmlns="http://www.w3.org/2000/svg">
<path d="M11.9066 14.625C12.6028 14.625 13.2705 14.3484 13.7628 13.8561C14.255 13.3638 14.5316 12.6962 14.5316 12C14.5316 11.9231 14.5281 11.847 14.5215 11.7717L11.6783 14.6149C11.7536 14.6215 11.8295 14.625 11.9066 14.625ZM20.5954 3.88032L19.5941 2.88001C19.5589 2.84487 19.5113 2.82513 19.4616 2.82513C19.4119 2.82513 19.3642 2.84487 19.329 2.88001L16.7668 5.44289C15.3534 4.72055 13.7646 4.35938 12.0004 4.35938C7.4957 4.35938 4.13476 6.70547 1.91757 11.3977C1.82845 11.5864 1.78223 11.7925 1.78223 12.0012C1.78223 12.2099 1.82845 12.416 1.91757 12.6047C2.80351 14.4708 3.8703 15.9665 5.11796 17.0918L2.6385 19.5703C2.60337 19.6054 2.58363 19.6531 2.58363 19.7028C2.58363 19.7525 2.60337 19.8002 2.6385 19.8354L3.63905 20.8359C3.67421 20.871 3.72189 20.8908 3.77159 20.8908C3.8213 20.8908 3.86897 20.871 3.90413 20.8359L20.5954 4.14563C20.6128 4.12822 20.6266 4.10754 20.6361 4.08477C20.6455 4.06201 20.6503 4.03761 20.6503 4.01297C20.6503 3.98833 20.6455 3.96393 20.6361 3.94117C20.6266 3.91841 20.6128 3.89773 20.5954 3.88032ZM7.78163 12C7.78157 11.2875 7.96605 10.5872 8.3171 9.96716C8.66816 9.34717 9.17382 8.82867 9.78482 8.46218C10.3958 8.09569 11.0913 7.89371 11.8036 7.87592C12.5158 7.85812 13.2206 8.02511 13.8491 8.36063L12.7096 9.50016C12.25 9.35301 11.7588 9.33529 11.2898 9.44894C10.8209 9.56259 10.3923 9.80322 10.0511 10.1444C9.70985 10.4857 9.46922 10.9143 9.35557 11.3832C9.24192 11.8522 9.25964 12.3434 9.40679 12.803L8.26726 13.9425C7.94748 13.345 7.78064 12.6777 7.78163 12Z" fill="white"/>
<path d="M22.0831 11.3953C21.2581 9.65782 20.2761 8.24102 19.1372 7.14493L15.7589 10.5234C16.0437 11.2678 16.1068 12.0788 15.9406 12.8583C15.7745 13.6378 15.3862 14.3525 14.8226 14.9161C14.259 15.4797 13.5443 15.868 12.7648 16.0342C11.9853 16.2003 11.1743 16.1372 10.4299 15.8524L7.56445 18.7179C8.89383 19.333 10.3724 19.6406 12.0002 19.6406C16.5049 19.6406 19.8659 17.2945 22.0831 12.6023C22.1722 12.4136 22.2185 12.2075 22.2185 11.9988C22.2185 11.7901 22.1722 11.584 22.0831 11.3953Z" fill="white"/>
</svg>
